PathFileType	4	(X/Y/Z)	T1_P2_Vision_NoMovement_4_0-734.trc
DataRate	CameraRate	NumFrames	NumMarkers	Units	OrigDataRate	OrigDataStartFrame	OrigNumFrames
60	60	7	27	m	60	367	734
Frame#	Time	RHip			RKnee			RAnkle			RBigToe			RSmallToe			RHeel			LHip			LKnee			LAnkle			LBigToe			LSmallToe			LHeel			Neck			Head			Nose			RShoulder			RElbow			RWrist			RThumb			RIndex			RPinky			LShoulder			LElbow			LWrist			LThumb			LIndex			LPinky		
		X1	Y1	Z1	X2	Y2	Z2	X3	Y3	Z3	X4	Y4	Z4	X5	Y5	Z5	X6	Y6	Z6	X7	Y7	Z7	X8	Y8	Z8	X9	Y9	Z9	X10	Y10	Z10	X11	Y11	Z11	X12	Y12	Z12	X13	Y13	Z13	X14	Y14	Z14	X15	Y15	Z15	X16	Y16	Z16	X17	Y17	Z17	X18	Y18	Z18	X19	Y19	Z19	X20	Y20	Z20	X21	Y21	Z21	X22	Y22	Z22	X23	Y23	Z23	X24	Y24	Z24	X25	Y25	Z25	X26	Y26	Z26	X27	Y27	Z27
368	6.133333333333334	450.5705886994879	3682.3912625711164	663.4085897946933	845.2344021233437	3700.1543754793834	651.4432840680197	1207.2229819255156	3724.557921230077	689.2471929523471	1294.2499538276236	3654.4178850247276	656.9228777132197	1295.0830243946782	3713.198071874759	612.8042745789468	1263.3312285816658	3781.184526726029	741.0351783427677	465.0169437238076	3644.7292908287927	881.9007967453274	859.0729522911255	3635.1605175310556	866.6424469981006	1231.3053054298687	3677.985224843856	855.0474779065014	1310.2947174994679	3563.894727932592	812.005361002631	1282.8537307652248	3537.909125108446	843.3817528634806	1266.2091738746235	3728.200054399261	864.5506376819319	-129.8866496958762	3653.4446113003182	793.3507874781748	-389.85196053383896	3606.6372471215927	768.1062663372908	-251.94719910912008	3513.069558227997	740.4758780955335	-44.083270142457664	3746.9212099839497	654.6314486670615	198.21118424605004	3706.4123435015845	565.5778186152271	344.5623555193091	3562.5169342366235	641.6044546758968	398.97562009375974	3503.7374116003643	707.5293243294435	428.83390608035586	3518.0842107561393	724.9691574492595	453.9273496527134	3507.5096508397905	718.0324726610512	-35.78938400611935	3635.5827155592274	971.3691865833248	219.61361098846928	3537.6656294855834	949.888570967699	368.08287157940975	3483.8245728071497	761.3529462417554	393.3584118287954	3496.475006531772	662.6901746490462	444.05017745130215	3545.630936722048	681.2824208345087	466.9178331605279	3511.6757760083733	719.368414016013
369	6.15	451.9073661449374	3682.9690784657646	663.3875145362493	845.898228699411	3703.1127197641886	651.8086713287361	1206.9373274122825	3724.1964675151344	688.8991548084497	1295.5033755878628	3657.039077995513	659.1087338913445	1294.9571057329306	3712.006533805952	612.9355586306776	1263.3000430424345	3780.911002395942	741.9449114885983	465.0882090221143	3645.9425035176723	881.035918022959	860.0694425859828	3634.578421467131	866.2380376318492	1232.2523891260726	3678.57684389362	855.2355953691545	1310.5166598527933	3564.2324160894486	812.067158034515	1282.974187162095	3537.5527952856096	844.142857720537	1266.6760525904315	3728.596249430664	864.5741775753565	-129.85115583224604	3655.5763101347993	795.2903076458939	-389.23780229521515	3606.761522446207	768.0785797168768	-253.1585129822566	3512.432365443488	740.3578992864265	-44.08694597924152	3746.8503039605257	654.6148066270626	196.50418969607833	3705.8134520428	565.2845118490274	343.44898128999375	3559.9210770173945	639.4340731510538	398.2505687031477	3502.9986802431113	706.8853927357364	428.40055426391297	3519.9459329780884	726.3014244149716	452.5818232051622	3507.4650716984415	718.0327285734469	-35.740501977157855	3635.5941017960063	971.3872679647028	218.71729736101787	3538.703263068089	950.4385431769975	369.16245995993387	3488.6297220442766	766.2885290832256	392.94847177854035	3500.628339140091	665.6804033257254	443.8108926817588	3551.2178593194653	682.964913725035	466.976447831471	3511.827640849212	719.8729282539282
370	6.166666666666667	451.9842218175662	3683.0581971472807	663.3899634615897	845.9337236896179	3702.991078064413	652.0587415631499	1206.5568471002766	3724.6864576790026	689.2159845699346	1295.2312934587853	3656.6112085714585	658.6987928410125	1293.7286534044556	3709.4605710194187	613.198259586576	1263.1398742845097	3780.7605191400153	742.5466468068179	464.9647829387503	3646.257886868783	880.0533688960003	860.0866250611125	3633.2188944392674	865.5716432208594	1231.2198537343907	3677.9145232212054	855.0335087756125	1310.62837074244	3564.0390137340037	812.0223013501385	1283.004044395721	3537.3553025854567	844.4832993548318	1264.9186019004962	3727.749729473325	864.1594599941744	-129.89481415127202	3653.0086339877284	793.0270066271083	-389.1371373681915	3606.786278068862	768.092663784562	-253.2686311621783	3512.790408274046	740.6111518577376	-44.090063923923644	3746.7301203453217	654.57016493939	195.0996207206822	3704.0327155969294	564.7636577501944	343.4407302954351	3559.91524806752	639.4473010202895	397.9907805137964	3502.9574044644064	706.9891405411305	427.35973580386815	3523.988129634825	729.9442796940613	451.0523792795749	3509.4270521404114	719.6069477860433	-35.38107082685457	3635.3179410079183	971.2428328817132	218.1278754697495	3539.3706922138726	950.8334879606459	369.0076463834834	3489.568795200253	769.3669264439559	392.127502731819	3499.5850904846156	667.2366170264246	442.5243182764632	3553.086229712863	684.9169342092027	466.9076922808417	3511.959495275627	720.5800912881974
371	6.183333333333334	451.2113676133581	3682.5267933034256	664.1064627902734	846.1263595954423	3699.621396857984	651.8290717668965	1206.7206644215046	3726.585597350549	690.7911682357346	1294.6126946107906	3655.47747543527	657.7235026959888	1291.4397427620536	3704.9420299825156	612.7466237089887	1263.6229288197644	3781.2006524262542	742.8313328174715	464.4256931433591	3643.4964987086137	879.1217562879235	859.8479422490409	3631.769882402682	864.9085342138362	1229.099576051266	3676.552957640177	854.6126424461363	1311.108220787128	3564.1873137486637	812.1738784209093	1282.8289757845464	3537.374248691663	844.0998637766627	1262.9342760258828	3726.681500524886	863.7710022125679	-129.95851342492702	3649.095479097756	789.5649379233357	-389.35490622491426	3606.7550875332167	768.1281916790898	-252.58171224785448	3513.3503170937674	740.8202565058059	-44.10216565603031	3746.6012191717814	654.5116141740676	194.33765174039306	3701.155864482727	564.0525533900367	345.1041804424162	3563.808780368603	642.7299275573805	397.7827775369835	3504.2632808161093	708.4416717056611	425.4945669298804	3527.81679006558	734.4580361041016	450.19881655549284	3514.387760494471	723.667568626971	-34.62202958255075	3634.6878349300796	970.894346289784	218.26481121408048	3539.214102968151	950.7398325158948	368.5529343528435	3485.5581639162533	769.4536835212064	390.1919130063062	3493.606591324628	666.7608906522923	441.52942253305406	3554.2393878310486	688.1911501955828	466.80477292649744	3512.0199425153673	720.9841700178724
372	6.2	450.80238213269024	3681.5971660193927	666.1791021294654	846.8350321742641	3692.6558151722866	650.5655030262658	1208.864786460565	3730.505285335093	694.2765441087288	1295.0110998942494	3656.241068372685	658.4440764395895	1289.6688974162194	3700.6862341085425	611.4425193213377	1265.7210397880253	3782.4912663592595	743.0499962515296	463.56481676699957	3637.2590509655565	877.6804114835645	860.4561311537395	3631.3439958402223	864.6912974317772	1228.0487275964667	3675.895898857766	854.4237390818242	1311.9799381587231	3564.7403257790006	812.3705773950217	1282.3063803410446	3537.464504738011	843.2191008159116	1263.1148101039096	3726.8011334669873	863.8909401193004	-129.96771882210282	3648.6700975830986	789.2151496747153	-390.04173486954835	3606.5876031941348	768.0915582163269	-252.11974717464653	3513.9428529286215	740.5350209269727	-44.109308832885375	3746.4873379037945	654.4642688189118	194.03562386645928	3697.6446818732966	563.2313334872595	347.63355175932725	3569.6618137412847	647.6716701254828	397.7677024962063	3507.6804517137016	711.8528657564375	423.36469521188303	3527.6494222401834	737.185049260327	450.3159144719336	3520.5233093071633	728.8715355264483	-33.683073280699226	3633.9090939194703	970.4344653217097	218.49847841030623	3538.9275383349204	950.5431808996011	368.7784695199132	3480.290260091725	768.8529308496522	387.50533245743884	3486.554952726725	665.9432277720531	441.27393360825863	3554.7135426876275	691.7350149510095	466.7740265779742	3511.94449405484	721.0017898593431
373	6.216666666666667	451.51336101278434	3680.5963506317303	669.040878561141	847.7836774864936	3683.9372256979373	648.8078417961896	1212.9037428756455	3734.717802901535	698.3002900230101	1296.1264497372676	3658.280047113742	660.2818143374203	1290.090915810854	3699.680116986881	610.2066945527642	1268.536626698725	3783.39073279781	742.9679158427622	463.1894291980642	3631.3706800584264	875.6046564452047	862.1652544037926	3632.0916303544313	864.9547071910532	1229.2214478750745	3676.712414914152	854.7167747484675	1312.5076562206186	3564.829675751283	812.1724609264068	1281.515692818743	3537.4148356306987	842.4727610126408	1265.0270428321212	3728.0166077072945	864.3295070194032	-129.92223639420163	3652.304005296621	792.4712489526088	-391.26569466030065	3606.194186294741	767.8985898767747	-252.53173181783592	3514.688421063159	739.5403666565313	-44.096515815378496	3746.3887927929827	654.4412350242073	194.1761317498711	3696.101736708198	562.9188268235575	349.63761677783975	3574.2003407462244	651.5388880300528	398.0175107616917	3512.298205274203	716.3061601423013	422.1570995641692	3523.501132618938	737.3698169790117	451.3794412268539	3524.549445033079	732.5316642385857	-32.72544358863975	3633.114372434679	969.9149803661769	218.19619169064845	3539.226836604018	950.6823521447951	369.75741401744875	3478.7772173956732	770.487552257117	385.21833093862097	3483.449004846908	667.4121767555005	440.60430981233617	3551.3001094622364	693.0859730155521	466.89505577742733	3511.7540663673676	721.4091209878699
374	6.233333333333333	452.7903533305972	3679.51487070311	671.08045774385	848.2569923573831	3677.3284040279013	647.5993290421795	1216.1620538056263	3736.0633385529636	700.0287779811815	1296.9794634782595	3659.7232520051025	661.6095330915358	1291.7929307851705	3700.6362720284205	609.4618883726442	1270.3275898272504	3782.579437847311	742.3022112207791	464.1203809827494	3630.76986714932	874.2267454093839	863.5006646087779	3633.117387028887	865.3271942927764	1231.5858191998602	3678.352675646595	855.2521143492065	1312.0097633010964	3563.178734363326	811.3043214595524	1280.938267857487	3537.326873315821	842.0963673191955	1266.502168444279	3729.130861527207	864.5815600673387	-129.87478131640054	3656.4567004245487	796.1706696990254	-392.3674959062487	3605.75696343686	767.6380809564299	-253.40069190657982	3515.489624618792	738.3011971566115	-44.066171759997275	3746.3070583437316	654.4418479927833	194.93652499001192	3698.458227844083	563.5993776790141	350.48731498275197	3576.0325227180483	653.1398641047763	397.9196967879099	3515.5933149040943	719.7574980865268	422.61040550661414	3519.769918829652	736.8472332197412	452.9984521488384	3525.56542571263	733.7279711786039	-31.83807223752843	3632.3444682899453	969.3896179075406	217.6195550105146	3539.849884145011	951.0188625948791	370.9564390000338	3481.699740745536	774.3031935396743	383.82674361729477	3485.0466457796147	670.8220516358106	438.840188534563	3544.3199262607127	692.07640629401	467.2294687020895	3511.851560783342	722.8552894241724
